<?xml version="1.0"?>
<svg xmlns="http://www.w3.org/2000/svg" xmlns:xlink="http://www.w3.org/1999/xlink" xmlns:svgjs="http://svgjs.com/svgjs" version="1.1" width="512" height="512" x="0" y="0" viewBox="0 0 512 512" style="enable-background:new 0 0 512 512" xml:space="preserve" class=""><g>
<g xmlns="http://www.w3.org/2000/svg">
	<g>
		<path d="M500.424,455.678H462.28V312.511c0-25.851-21.031-46.882-46.882-46.882h-31.769v-10.497c0-2.992-1.172-5.826-3.196-7.958    c10.452-9.338,20.252-22.503,29.308-39.446c11.67-21.831,17.814-42.042,18.07-42.892c0.029-0.097,0.049-0.196,0.076-0.294    c0.013-0.047,0.034-0.093,0.045-0.14c0.397-1.533,3.879-15.263,3.879-25.411c0-58.351-47.472-105.823-105.823-105.823    c-29.609,0-58.235,12.293-78.542,33.728c-19.034,20.093-28.717,45.919-27.266,72.721c0.831,15.339,2.93,22.69,4.165,25.79    c1.139,3.694,7.068,22.176,17.566,42.046c9.081,17.188,18.943,30.493,29.486,39.873c-1.935,2.115-3.053,4.885-3.053,7.807v10.497    h-31.769c-25.851,0-46.882,21.031-46.882,46.882v104.718c-11.261-19.589-31-33.711-54.188-37.279v-9.927    c0-6.393-5.182-11.576-11.576-11.576s-11.576,5.182-11.576,11.576v9.926c-36.332,5.59-64.243,37.063-64.243,74.935v1.254    c-4.832,1.391-8.37,5.837-8.37,11.116c0,6.393,5.182,11.576,11.576,11.576h8.37h128.485h13.097h249.435h49.72    c6.393,0,11.576-5.182,11.576-11.576S506.818,455.678,500.424,455.678z M176.597,455.678H71.263v-0.794    c0-29.04,23.626-52.666,52.667-52.666c29.04,0,52.666,23.626,52.666,52.666V455.678z M243.297,138.365    c-1.104-20.388,6.338-40.116,20.956-55.547c15.953-16.84,38.455-26.499,61.734-26.499c45.585,0,82.672,37.086,82.672,82.672    c0,0.786-0.037,1.637-0.104,2.532l-42.919-30.405c-3.002-2.125-6.834-2.699-10.326-1.544l-111.368,36.825    C243.692,144.148,243.466,141.487,243.297,138.365z M249.931,168.803l107.092-35.41l46.01,32.595    c-8.53,23.748-29.128,67.263-55.517,73.997c-3.539,0.903-6.443,3.423-7.838,6.798c-0.876,2.122-1.09,4.427-0.664,6.624    l-13.03,4.105l-13.907-4.383c0.409-2.17,0.193-4.439-0.666-6.535c-1.376-3.357-4.247-5.874-7.755-6.801    C278.548,233.162,258.856,192.889,249.931,168.803z M360.478,270.916v6.289v22.915l-31.013-9.771    c-1.132-0.357-2.305-0.535-3.478-0.535c-0.785,0-1.57,0.087-2.342,0.248c-0.382,0.079-0.762,0.17-1.137,0.288l-31.012,9.771    v-22.917v-6.289l13.463,4.241l17.549,5.53c1.133,0.358,2.306,0.535,3.479,0.535c1.173,0,2.346-0.178,3.479-0.535L360.478,270.916z     M439.13,455.678H337.562v-61.279c0-6.393-5.182-11.576-11.576-11.576s-11.576,5.182-11.576,11.576v61.279H212.845V312.511    c0-13.085,10.645-23.73,23.73-23.73h31.769v27.123c0,3.226,1.345,6.283,3.673,8.458c0.332,0.31,0.685,0.603,1.057,0.876    c0.331,0.242,0.675,0.458,1.026,0.662c0.09,0.052,0.182,0.103,0.273,0.154c0.333,0.182,0.673,0.352,1.02,0.499    c0.023,0.009,0.045,0.022,0.068,0.031c0.37,0.154,0.748,0.282,1.131,0.398c0.095,0.029,0.191,0.054,0.287,0.081    c0.351,0.096,0.705,0.177,1.063,0.24c0.039,0.007,0.079,0.017,0.118,0.023c0.394,0.064,0.791,0.103,1.189,0.126    c0.096,0.006,0.191,0.008,0.287,0.012c0.128,0.005,0.257,0.015,0.387,0.015c0.238,0,0.478-0.013,0.718-0.027    c0.036-0.002,0.072-0.001,0.107-0.005c0.398-0.029,0.795-0.083,1.192-0.153c0.091-0.016,0.182-0.035,0.273-0.052    c0.399-0.081,0.796-0.175,1.189-0.299l42.588-13.419l42.589,13.419c3.513,1.108,7.351,0.475,10.324-1.706    c0.372-0.272,0.725-0.565,1.057-0.876c2.328-2.175,3.673-5.232,3.673-8.458v-27.123H415.4c13.085,0,23.73,10.645,23.73,23.73    V455.678z" fill="#999999" data-original="#000000" style="" class=""/>
	</g>
</g>
<g xmlns="http://www.w3.org/2000/svg">
	<g>
		<path d="M22.92,464.987c-0.151-0.729-0.37-1.459-0.66-2.165c-0.289-0.695-0.648-1.366-1.065-1.991    c-0.417-0.637-0.903-1.227-1.435-1.76c-0.532-0.532-1.123-1.019-1.76-1.447c-0.625-0.417-1.308-0.776-2.003-1.065    c-0.695-0.289-1.424-0.509-2.165-0.66c-1.493-0.301-3.033-0.301-4.526,0c-0.741,0.151-1.459,0.37-2.165,0.66    c-0.695,0.289-1.366,0.648-1.991,1.065c-0.637,0.428-1.227,0.914-1.76,1.447c-0.533,0.533-1.019,1.123-1.447,1.76    c-0.417,0.625-0.776,1.297-1.065,1.991c-0.289,0.706-0.509,1.435-0.66,2.165C0.069,465.74,0,466.504,0,467.256    c0,0.752,0.069,1.516,0.22,2.257c0.151,0.741,0.37,1.47,0.66,2.165c0.289,0.706,0.648,1.378,1.065,2.003    c0.428,0.637,0.914,1.227,1.447,1.76c0.532,0.532,1.123,1.019,1.76,1.435c0.625,0.417,1.296,0.776,1.991,1.065    c0.706,0.289,1.424,0.509,2.165,0.66c0.752,0.15,1.505,0.232,2.269,0.232c0.752,0,1.516-0.081,2.257-0.232    c0.741-0.151,1.47-0.37,2.165-0.66c0.695-0.289,1.378-0.648,2.003-1.065c0.637-0.417,1.227-0.903,1.76-1.435    c0.533-0.532,1.019-1.123,1.435-1.76c0.417-0.625,0.776-1.296,1.065-2.003c0.289-0.695,0.509-1.424,0.66-2.165    c0.15-0.741,0.232-1.505,0.232-2.257S23.07,465.74,22.92,464.987z" fill="#999999" data-original="#000000" style="" class=""/>
	</g>
</g>
<g xmlns="http://www.w3.org/2000/svg">
	<g>
		<path d="M413.152,354.057h-34.616c-6.393,0-11.576,5.182-11.576,11.576c0,6.393,5.182,11.576,11.576,11.576h34.616    c6.393,0,11.576-5.182,11.576-11.576C424.728,359.239,419.545,354.057,413.152,354.057z" fill="#999999" data-original="#000000" style="" class=""/>
	</g>
</g>
<g xmlns="http://www.w3.org/2000/svg">
	<g>
		<path d="M337.33,352.39c-0.139-0.729-0.37-1.458-0.66-2.165c-0.289-0.695-0.637-1.366-1.053-1.991    c-0.428-0.637-0.914-1.227-1.447-1.759c-0.533-0.544-1.123-1.019-1.76-1.447c-0.625-0.417-1.297-0.776-1.991-1.065    c-0.706-0.289-1.435-0.509-2.176-0.66c-1.493-0.301-3.021-0.301-4.515,0c-0.741,0.151-1.47,0.37-2.165,0.66    c-0.706,0.289-1.378,0.648-2.003,1.065c-0.637,0.428-1.227,0.903-1.76,1.447c-0.532,0.532-1.019,1.123-1.435,1.759    c-0.417,0.625-0.776,1.297-1.065,1.991c-0.289,0.706-0.521,1.435-0.66,2.165c-0.15,0.752-0.232,1.516-0.232,2.269    s0.081,1.516,0.232,2.257c0.139,0.741,0.37,1.47,0.66,2.165c0.289,0.706,0.648,1.378,1.065,2.003    c0.417,0.637,0.903,1.227,1.435,1.76s1.123,1.019,1.76,1.435c0.625,0.417,1.296,0.776,2.003,1.065    c0.695,0.289,1.424,0.509,2.165,0.66c0.741,0.15,1.505,0.232,2.257,0.232s1.516-0.081,2.257-0.232    c0.741-0.151,1.47-0.37,2.176-0.66c0.695-0.289,1.366-0.648,1.991-1.065c0.637-0.417,1.227-0.903,1.76-1.435    s1.019-1.123,1.447-1.76c0.417-0.625,0.764-1.296,1.053-2.003c0.289-0.695,0.521-1.424,0.66-2.165    c0.15-0.741,0.232-1.505,0.232-2.257S337.48,353.142,337.33,352.39z" fill="#999999" data-original="#000000" style="" class=""/>
	</g>
</g>
<g xmlns="http://www.w3.org/2000/svg">
</g>
<g xmlns="http://www.w3.org/2000/svg">
</g>
<g xmlns="http://www.w3.org/2000/svg">
</g>
<g xmlns="http://www.w3.org/2000/svg">
</g>
<g xmlns="http://www.w3.org/2000/svg">
</g>
<g xmlns="http://www.w3.org/2000/svg">
</g>
<g xmlns="http://www.w3.org/2000/svg">
</g>
<g xmlns="http://www.w3.org/2000/svg">
</g>
<g xmlns="http://www.w3.org/2000/svg">
</g>
<g xmlns="http://www.w3.org/2000/svg">
</g>
<g xmlns="http://www.w3.org/2000/svg">
</g>
<g xmlns="http://www.w3.org/2000/svg">
</g>
<g xmlns="http://www.w3.org/2000/svg">
</g>
<g xmlns="http://www.w3.org/2000/svg">
</g>
<g xmlns="http://www.w3.org/2000/svg">
</g>
</g></svg>
