<?xml version="1.0"?>
<svg xmlns="http://www.w3.org/2000/svg" xmlns:xlink="http://www.w3.org/1999/xlink" xmlns:svgjs="http://svgjs.com/svgjs" version="1.1" width="512" height="512" x="0" y="0" viewBox="0 0 510.001 510" style="enable-background:new 0 0 512 512" xml:space="preserve" class=""><g>
<g xmlns="http://www.w3.org/2000/svg">
	<g>
		<path d="M509.998,199.396l-51.441-55.851l-47.604-90.692H99.046l-47.604,90.689L0,199.396v163.716v12.421v58.265    c0,12.896,10.453,23.352,23.351,23.352H98.07c12.895,0,23.351-10.456,23.351-23.352v-58.265H388.58v58.265    c0,12.896,10.453,23.352,23.352,23.352h74.719c12.895,0,23.351-10.456,23.351-23.352v-58.265l0,0V199.396H509.998z     M127.314,85.864h255.369l42.84,82.62H84.475L127.314,85.864z M147.587,334.905H45.842v-53.489h101.745V334.905z M464.156,334.905    H362.411v-53.489h101.745V334.905z" fill="#999999" data-original="#000000" style="" class=""/>
	</g>
</g>
<g xmlns="http://www.w3.org/2000/svg">
</g>
<g xmlns="http://www.w3.org/2000/svg">
</g>
<g xmlns="http://www.w3.org/2000/svg">
</g>
<g xmlns="http://www.w3.org/2000/svg">
</g>
<g xmlns="http://www.w3.org/2000/svg">
</g>
<g xmlns="http://www.w3.org/2000/svg">
</g>
<g xmlns="http://www.w3.org/2000/svg">
</g>
<g xmlns="http://www.w3.org/2000/svg">
</g>
<g xmlns="http://www.w3.org/2000/svg">
</g>
<g xmlns="http://www.w3.org/2000/svg">
</g>
<g xmlns="http://www.w3.org/2000/svg">
</g>
<g xmlns="http://www.w3.org/2000/svg">
</g>
<g xmlns="http://www.w3.org/2000/svg">
</g>
<g xmlns="http://www.w3.org/2000/svg">
</g>
<g xmlns="http://www.w3.org/2000/svg">
</g>
</g></svg>
