<?xml version="1.0"?>
<svg xmlns="http://www.w3.org/2000/svg" xmlns:xlink="http://www.w3.org/1999/xlink" xmlns:svgjs="http://svgjs.com/svgjs" version="1.1" width="512" height="512" x="0" y="0" viewBox="0 0 300 300" style="enable-background:new 0 0 512 512" xml:space="preserve" class=""><g><g xmlns="http://www.w3.org/2000/svg"><path d="m148.515 68.943c7.719 0 14-6.281 14-14s-6.281-14-14-14-14 6.281-14 14 6.282 14 14 14zm0-20c3.309 0 6 2.691 6 6s-2.691 6-6 6-6-2.691-6-6 2.692-6 6-6z" fill="#999999" data-original="#000000" style="" class=""/><path d="m94.844 43.61c2.362 0 4.277-1.915 4.277-4.276s-1.915-4.277-4.277-4.277-4.276 1.915-4.276 4.277 1.914 4.276 4.276 4.276z" fill="#999999" data-original="#000000" style="" class=""/><path d="m50.515 80.443c2.209 0 4-1.791 4-4v-8c0-2.209-1.791-4-4-4s-4 1.791-4 4v8c0 2.209 1.791 4 4 4z" fill="#999999" data-original="#000000" style="" class=""/><path d="m54.515 100.443v-8c0-2.209-1.791-4-4-4s-4 1.791-4 4v8c0 2.209 1.791 4 4 4s4-1.791 4-4z" fill="#999999" data-original="#000000" style="" class=""/><path d="m42.515 80.943h-8c-2.209 0-4 1.791-4 4s1.791 4 4 4h8c2.209 0 4-1.791 4-4s-1.791-4-4-4z" fill="#999999" data-original="#000000" style="" class=""/><path d="m58.515 88.943h8c2.209 0 4-1.791 4-4s-1.791-4-4-4h-8c-2.209 0-4 1.791-4 4s1.791 4 4 4z" fill="#999999" data-original="#000000" style="" class=""/><path d="m240.853 152.943h-2.963l-6.869-39.518c-1.66-9.551-9.9-16.482-19.594-16.482h-109.824c-9.693 0-17.934 6.932-19.594 16.482l-6.87 39.518h-2.962c-11.945 0-21.662 9.717-21.662 21.662v36.676c0 11.384 8.831 20.724 20 21.578v17.698c0 7.934 6.453 14.387 14.387 14.387h7.227c7.934 0 14.387-6.453 14.387-14.387v-17.613h11.809 76.168 12.023v17.613c0 7.934 6.453 14.387 14.387 14.387h7.227c7.934 0 14.387-6.453 14.387-14.387v-17.698c11.169-.854 20-10.194 20-21.578v-36.676c-.002-11.946-9.719-21.662-21.664-21.662zm-150.961-38.147c.992-5.709 5.916-9.854 11.711-9.854h109.824c5.795 0 10.719 4.145 11.711 9.854l6.631 38.146h-43.254v-12c0-2.209-1.791-4-4-4h-52c-2.209 0-4 1.791-4 4v12h-43.254zm88.623 38.147h-44v-8h44zm-80 97.613c0 3.521-2.865 6.387-6.387 6.387h-7.227c-3.521 0-6.387-2.865-6.387-6.387v-17.613h20v17.613zm100-41.613v4h-84.215v-4zm0-8h-84.215v-.176c0-2.219 1.805-4.023 4.023-4.023h76.168c2.219 0 4.023 1.805 4.023 4.023v.176zm-80.191 24c-2.21 0-4.005-1.792-4.019-4h84.206c-.014 2.208-1.808 4-4.019 4zm109.805 32h-7.227c-3.521 0-6.387-2.865-6.387-6.387v-17.613h20v17.613c0 3.521-2.865 6.387-6.386 6.387zm26.386-45.662c0 7.533-6.129 13.662-13.662 13.662h-35.082c.453-1.264.744-2.606.744-4.023v-20.152c0-6.629-5.395-12.023-12.023-12.023h-76.168c-6.629 0-12.023 5.395-12.023 12.023v20.152c0 1.418.291 2.759.744 4.023h-34.868c-7.533 0-13.662-6.129-13.662-13.662v-36.676c0-7.533 6.129-13.662 13.662-13.662h168.676c7.533 0 13.662 6.129 13.662 13.662z" fill="#999999" data-original="#000000" style="" class=""/><path d="m228.515 172.943c-9.926 0-18 8.074-18 18s8.074 18 18 18 18-8.074 18-18-8.074-18-18-18zm0 28c-5.514 0-10-4.486-10-10s4.486-10 10-10 10 4.486 10 10-4.486 10-10 10z" fill="#999999" data-original="#000000" style="" class=""/><path d="m84.515 172.943c-9.926 0-18 8.074-18 18s8.074 18 18 18 18-8.074 18-18-8.074-18-18-18zm0 28c-5.514 0-10-4.486-10-10s4.486-10 10-10 10 4.486 10 10-4.486 10-10 10z" fill="#999999" data-original="#000000" style="" class=""/><path d="m216.558 74.167c-2.123.611-3.352 2.826-2.742 4.949s2.826 3.355 4.949 2.742c7.91-2.275 16.203 2.318 18.475 10.232.504 1.754 2.105 2.898 3.844 2.898.365 0 .736-.051 1.105-.156 2.123-.611 3.352-2.826 2.742-4.949-3.486-12.151-16.213-19.198-28.373-15.716z" fill="#999999" data-original="#000000" style="" class=""/><path d="m253.656 91.38c.365 0 .736-.051 1.105-.158 2.123-.609 3.352-2.824 2.74-4.947-2.654-9.246-8.75-16.906-17.166-21.566-8.414-4.662-18.146-5.77-27.387-3.111-2.123.609-3.352 2.824-2.74 4.947.607 2.125 2.822 3.361 4.947 2.74 14.855-4.258 30.393 4.352 34.658 19.197.503 1.756 2.105 2.898 3.843 2.898z" fill="#999999" data-original="#000000" style="" class=""/><path d="m269.328 82.878c-7.35-25.607-34.16-40.471-59.773-33.107-2.123.609-3.352 2.824-2.74 4.947.609 2.125 2.82 3.365 4.947 2.74 21.385-6.133 43.744 6.26 49.879 27.627.502 1.756 2.104 2.898 3.842 2.898.365 0 .736-.051 1.105-.158 2.123-.609 3.351-2.824 2.74-4.947z" fill="#999999" data-original="#000000" style="" class=""/></g></g></svg>
